<?xml version="1.0" encoding="UTF-8" standalone="no"?>
<!-- Created with Inkscape (http://www.inkscape.org/) -->

<svg
   xmlns:dc="http://purl.org/dc/elements/1.1/"
   xmlns:cc="http://creativecommons.org/ns#"
   xmlns:rdf="http://www.w3.org/1999/02/22-rdf-syntax-ns#"
   xmlns:svg="http://www.w3.org/2000/svg"
   xmlns="http://www.w3.org/2000/svg"
   xmlns:sodipodi="http://sodipodi.sourceforge.net/DTD/sodipodi-0.dtd"
   xmlns:inkscape="http://www.inkscape.org/namespaces/inkscape"
   width="236.86653mm"
   height="276.96912mm"
   viewBox="0 0 839.29085 981.38666"
   id="svg2"
   version="1.1"
   inkscape:version="0.91 r13725"
   sodipodi:docname="team-wizard_shield_no-crest.svg"
   inkscape:export-filename="C:\Users\dt209189\Documents\_tmp_git\team_wizard_gear\png output\team-wizard_shield_no-crest.png"
   inkscape:export-xdpi="300.03903"
   inkscape:export-ydpi="300.03903">
  <defs
     id="defs4" />
  <sodipodi:namedview
     id="base"
     pagecolor="#ffffff"
     bordercolor="#666666"
     borderopacity="1.0"
     inkscape:pageopacity="0.0"
     inkscape:pageshadow="2"
     inkscape:zoom="0.7"
     inkscape:cx="741.85458"
     inkscape:cy="514.10578"
     inkscape:document-units="px"
     inkscape:current-layer="layer1"
     showgrid="false"
     inkscape:window-width="1680"
     inkscape:window-height="988"
     inkscape:window-x="-8"
     inkscape:window-y="-8"
     inkscape:window-maximized="1"
     fit-margin-top="20"
     fit-margin-right="20"
     fit-margin-bottom="20"
     fit-margin-left="20" />
  <metadata
     id="metadata7">
    <rdf:RDF>
      <cc:Work
         rdf:about="">
        <dc:format>image/svg+xml</dc:format>
        <dc:type
           rdf:resource="http://purl.org/dc/dcmitype/StillImage" />
        <dc:title></dc:title>
      </cc:Work>
    </rdf:RDF>
  </metadata>
  <g
     inkscape:label="Layer 1"
     inkscape:groupmode="layer"
     id="layer1"
     transform="translate(45.122001,17.04583)">
    <path
       style="fill:#272cff;fill-opacity:1;fill-rule:evenodd;stroke:none;stroke-width:4;stroke-linecap:round;stroke-linejoin:round;stroke-miterlimit:4;stroke-dasharray:none;stroke-opacity:1"
       d="m 2613.0949,203.82031 -348.7793,219.60157 77.5078,361.69726 271.2715,258.35546 271.2734,-258.35546 77.5059,-361.69726 z"
       id="path4165"
       inkscape:connector-curvature="0" />
    <path
       style="fill:#272cff;fill-opacity:1;fill-rule:evenodd;stroke:none;stroke-width:4;stroke-linecap:round;stroke-linejoin:round;stroke-miterlimit:4;stroke-dasharray:none;stroke-opacity:1"
       d="m 436.46289,172.85156 c 9.83452,-0.18817 20.68767,3.64807 32.20703,10.11328 54.20383,27.37267 85.47315,76.1917 98.0918,121.06836 -0.0224,0.12201 -0.046,0.24899 -0.0684,0.3711 l 10.75391,30.28711 c 2.41191,6.38931 6.59556,43.39849 5.50354,52.88504 -2.22593,9.57129 -35.29624,-3.44753 -31.45606,7.11 5.53325,3.05923 17.17474,2.08904 27.35907,9.21033 0,0 8.47661,13.5165 0.6202,17.38749 -8.60819,-6.54611 -36.36937,-7.73605 -37.79977,-1.83479 8.52511,1.77187 20.52198,4.4732 28.68614,9.00412 9.45719,4.96273 9.26493,13.63171 8.57376,22.0118 -24.22471,-15.02988 -47.79957,-11.16455 -48.28571,-5.20759 14.93477,2.88652 32.21993,6.3917 37.63634,16.65684 9.27588,15.20505 2.40585,24.26191 -0.0113,36.77871 -6.34744,-31.99903 -60.15221,-40.01739 -56.65932,-31.28516 20.63695,10.43347 31.28971,18.78525 44.87611,41.19532 9.253,37.92603 -3.64576,42.68811 -12.66211,55.0039 3.9498,-38.38797 -47.2473,-92.14635 -49.6914,-77.38281 18.70641,19.76256 29.37861,64.6832 26.76144,72.36747 -1.6244,24.45026 -9.64935,26.83972 -28.11998,41.45535 14.10754,-26.81785 -15.8998,-118.3074 -23.77232,-99.29548 5.19409,34.02764 13.2449,59.30199 -4.63672,94.92578 -24.95086,21.72155 -37.4204,27.85457 -63.81055,38.6211 40.25573,-42.11495 48.91108,-137.53865 37.28516,-124.52149 -23.51798,69.55132 -35.11888,81.73754 -57.24255,102.2355 0,0 -21.2493,19.77313 -77.45862,31.95982 82.81482,-71.7631 81.23792,-102.20965 114.05078,-157.80078 22.91468,-44.1535 35.28203,-89.7622 40.71289,-149.06055 0.86152,-80.18669 0.55147,-91.05324 -8.08398,-110.21094 -17.58746,-19.94278 -36.70302,-12.10159 -56.0918,0.71094 8.89436,-39.37785 23.95743,-54.40054 42.73242,-54.75977 z"
       id="path4163" />
    <path
       style="fill:#272cff;fill-opacity:1;fill-rule:evenodd;stroke:none;stroke-width:4;stroke-linecap:round;stroke-linejoin:round;stroke-miterlimit:4;stroke-dasharray:none;stroke-opacity:1"
       d="m 345.81641,186.0293 c 2.55375,0.021 5.01183,0.13498 7.35547,0.35156 l -28.5293,32.75153 c -10.19111,10.79947 -15.15439,42.75928 -18.03671,65.86443 -13.46919,92.27049 -58.64402,125.58256 -98.76996,198.76838 -20.47211,44.95317 -31.3457,71.71092 -35.40036,151.74652 -8.86236,-29.94199 -29.41134,-59.8841 -22.22852,-89.82617 -0.72574,-21.60174 17.2903,-52.66998 26.0957,-79.08594 3.87546,-10.25878 -30.85309,12.88378 -38.66015,46.86523 -4.08279,-15.76986 -10.58381,-35.7539 -2.54325,-47.14983 14.49751,-21.09974 18.28033,-19.88166 43.13505,-34.86384 -22.79458,-5.73001 -34.99598,8.77707 -50.423,18.5837 1.37225,-11.68401 1.92318,-26.7613 10.93331,-35.87331 17.88189,-11.24564 19.00976,-9.73537 36.06707,-11.818 4.56108,-5.96297 -6.01349,-13.60029 -42.65606,-4.02213 1.42171,-13.51451 4.64601,-21.60331 10.39285,-25.50531 8.44763,-5.64571 23.28812,-4.69368 38.7447,-0.10323 4.9308,-3.42987 -13.78756,-25.41639 -43.23884,-19.28348 3.10537,-6.7279 4.38717,-14.46416 13.41881,-20.33678 14.87495,-7.04414 23.9789,-3.22244 37.226,-0.39982 -1.22577,-9.03707 -18.48154,-19.15121 -34.56888,-14.79881 3.39088,-6.52888 2.19368,-15.29788 17.64536,-20.0514 0,0 14.7028,-3.2768 22.08079,7.08291 5.89643,-1.10097 -1.58054,-23.59919 -18.95447,-23.50592 4.59501,-5.5548 5.51611,-11.28017 17.75292,-12.54607 6.48313,1.49923 7.28902,-0.32961 12.96184,5.26245 5.32975,-3.90013 -8.3688,-16.95685 -14.98624,-16.46706 3.91541,-3.71583 5.2843,-9.48921 13.7996,-11.34631 7.16056,0.62284 10.53059,1.97534 16.84499,8.58207 4.78297,-3.03032 -4.46091,-13.19995 -13.96877,-16.89008 0.33675,-1.76707 47.89647,-38.94113 58.65764,-42.35282 24.06736,-11.34226 50.42693,-9.87403 79.85241,-9.63247 z"
       id="path4161" />
    <path
       style="fill:#272cff;fill-opacity:1;fill-rule:evenodd;stroke:none;stroke-width:4;stroke-linecap:round;stroke-linejoin:round;stroke-miterlimit:4;stroke-dasharray:none;stroke-opacity:1"
       d="M 430.1875 214.6543 C 415.92915 240.27669 401.01813 263.91774 392.97852 308.38672 C 395.29821 280.74867 386.46904 282.39124 379.92969 251.26953 C 374.05945 272.44227 366.45877 285.26055 371.71484 360.13477 C 377.8302 389.28512 386.54047 408.60556 397.81055 418.22852 C 420.20005 363.23462 426.48205 419.42964 464.98242 253.2207 C 450.43722 277.3209 433.79546 281.56213 418.10742 307.89648 C 436.50836 264.64727 418.69632 249.97258 430.1875 214.6543 z M 409.89258 364.52734 L 408.44141 380.14844 L 399.25977 377.70898 L 409.89258 364.52734 z M 375.58008 365.01562 L 383.3125 378.68555 L 379.44727 383.56641 L 375.58008 365.01562 z "
       transform="translate(-45.122001,-17.04583)"
       id="path4159" />
    <path
       style="fill:#272cff;fill-opacity:1;fill-rule:evenodd;stroke:none;stroke-width:4;stroke-linecap:round;stroke-linejoin:round;stroke-miterlimit:4;stroke-dasharray:none;stroke-opacity:1"
       d="m 425.86719,351.84961 c 18.24135,22.10306 -3.19375,171.52745 -68.12696,161.79101 -57.1417,-35.29798 -94.82962,37.61217 -10.45898,25.63086 10.5666,5.53492 -8.20439,29.76551 -33.74023,33.82227 -43.44238,6.90149 -67.20985,-21.58499 -78.22852,-42.89258 -9.38081,-32.97176 3.30798,-71.89273 27.64062,-78.33398 57.25347,-15.15593 119.32752,59.50248 109.41407,28.95312 -18.30487,-22.99288 -73.88385,-45.48169 -53.91211,-74.40429 54.76544,54.47174 92.13583,-48.75031 107.41211,-54.56641 z"
       id="path4153" />
    <path
       style="fill:#272cff;fill-opacity:1;fill-rule:evenodd;stroke:none;stroke-width:4;stroke-linecap:round;stroke-linejoin:round;stroke-miterlimit:4;stroke-dasharray:none;stroke-opacity:1"
       d="m 524.80664,597.45312 c 28.97032,3.06901 58.1163,42.25159 47.55078,84.49024 -6.53516,56.7722 -147.51022,63.25886 -181.80859,18.78906 -15.80305,-45.77863 2.9406,-48.69602 15.45703,-54.28515 -5.89406,22.28425 -10.31313,21.90129 6.03516,41.79296 26.76956,32.5716 92.32192,4.71963 83.16796,-16.19921 3.47891,-13.30414 -46.55858,-31.87242 -62.06836,-39.66993 31.3102,2.19923 60.70786,-4.21547 91.66602,-34.91797 z"
       id="path4136" />
    <path
       style="fill:#272cff;fill-opacity:1;fill-rule:evenodd;stroke:none;stroke-width:1px;stroke-linecap:butt;stroke-linejoin:miter;stroke-opacity:1"
       d="m 235,1368.7908 c -7.76888,-109.5519 3.46622,-128.3069 12.14286,-159.2857 9.66572,45.5356 22.71441,43.1329 19.28571,83.5714 11.88323,-65.0646 33.925,-99.6536 55,-137.1429 -16.98483,51.6758 9.34089,73.1487 -17.85714,136.4286 23.18822,-38.531 47.78664,-44.7379 69.28571,-80 -56.9067,243.1879 -66.19225,160.9645 -99.28571,241.4286 -16.65808,-14.0798 -29.53239,-42.3488 -38.57143,-85 z"
       id="path4138"
       inkscape:connector-curvature="0"
       sodipodi:nodetypes="cccccccc" />
    <path
       style="fill:#272cff;fill-opacity:1;fill-rule:evenodd;stroke:none;stroke-width:1px;stroke-linecap:butt;stroke-linejoin:miter;stroke-opacity:1"
       d="m 334.23495,1199.8306 c 20.03285,-87.7951 61.23329,-92.8442 110.76505,-65.3255 80.11766,40.0502 126.33632,111.4817 144.98768,177.1428 -18.16715,98.0643 -42.06233,219.3476 -150.70197,272.8572 -68.75607,24.7144 -45.96408,27.5394 -93.01303,32.9586 48.67052,-77.5956 73.15821,-153.0027 82.81869,-257.4177 1.27346,-117.3248 0.8154,-133.2247 -11.94851,-161.2552 -25.99565,-29.1792 -54.24972,-17.7068 -82.90791,1.0398 z"
       id="path4140"
       inkscape:connector-curvature="0"
       sodipodi:nodetypes="cccccccc" />
    <path
       style="fill:#272cff;fill-opacity:1;fill-rule:evenodd;stroke:none;stroke-width:1px;stroke-linecap:butt;stroke-linejoin:miter;stroke-opacity:1"
       d="m 274.28572,1139.5051 c -73.90035,-6.7602 -225.204286,54.4896 -166.85401,60.8193 76.14534,8.2601 -22.929695,71.1361 -31.003139,85.6092 L 37.142857,1575.2193 C 96.278771,1458.9119 190.67537,1403.095 211.42857,1262.3622 c 4.26031,-33.8062 5.62485,-72.4387 20.68818,-88.2399 z"
       id="path4142"
       inkscape:connector-curvature="0"
       sodipodi:nodetypes="csccccc" />
    <path
       style="fill:#272cff;fill-opacity:1;fill-rule:evenodd;stroke:none;stroke-width:1px;stroke-linecap:butt;stroke-linejoin:miter;stroke-opacity:1"
       d="m 548.80421,1269.8691 c -118.50204,181.9905 -197.5293,379.5853 -348.46556,539.1581 97.26629,-41.4789 127.18057,-65.9769 127.18057,-65.9769 32.70054,-29.9915 57.31394,-68.5134 71.91878,-130.3711 3.89762,67.4353 -13.52604,122.7902 -55.11023,182.1935 39.00681,-15.753 57.43601,-24.7273 94.31545,-56.5091 26.43045,-52.1228 14.53301,-89.1009 6.85569,-138.8883 24.90642,37.1238 45.43032,86.7114 51.50036,142.6715 27.3011,-21.3848 29.66134,-29.061 32.06237,-64.8353 3.86833,-11.2432 -18.77028,-70.1759 -46.41986,-99.0914 36.38077,23.8106 79.28695,57.054 73.44887,113.2212 13.32681,-18.0198 32.39171,-24.9866 18.71501,-80.4779 -20.08173,-32.7892 -34.24302,-45.0092 -64.74618,-60.2749 29.07154,12.7378 53.09232,11.1425 82.16387,45.7739 3.57274,-18.3139 18.9519,-31.9347 5.24139,-54.1819 -8.00593,-15.0194 -38.77933,-19.7775 -60.85415,-24.0009 22.7416,-0.9564 45.98829,-12.1431 68.72989,1.3493 1.02162,-12.2613 8.11566,-28.0198 -5.86286,-35.281 -12.06733,-6.6294 -25.80719,-6.5781 -38.40799,-9.1706 15.9253,-4.5699 31.25406,-15.3042 48.08366,-10.5298 15.71838,1.3567 -1.63175,-32.0633 -2.15401,-31.2875 -21.39884,-18.918 -13.22023,-14.4419 -21.39884,-18.918 5.14874,-22.8372 21.3596,-10.8485 24.64966,-24.8527 1.61408,-13.8802 -0.90154,-23.7364 -4.46646,-33.0849 l -15.92223,-44.3848 z"
       id="path4144"
       inkscape:connector-curvature="0"
       sodipodi:nodetypes="cccccccccccccccccccccccccc" />
    <path
       style="fill:#272cff;fill-opacity:1;fill-rule:evenodd;stroke:none;stroke-width:1px;stroke-linecap:butt;stroke-linejoin:miter;stroke-opacity:1"
       d="M 200,1170.9336 46.167612,1553.5212 c -14.961745,75.5074 -44.4181982,109.9464 -39.0247548,243.1267 -13.0992368,-43.8095 -43.4740072,-87.619 -32.8571422,-131.4286 -1.072754,-31.6065 25.55627968,-77.0638 38.571427,-115.7142 -19.0824364,22.0911 -39.26876,19.8967 -57.142857,68.5714 -6.03467,-23.0736 -16.17024,-47.6119 -4.285714,-64.2858 21.428572,-30.872 42.8571431,-37.9735 64.285715,-55.7142 -22.9178786,1.6891 -45.956322,7.2941 -69.24982,21.1835 2.028349,-17.0954 -6.925094,-37.8513 6.392677,-51.1835 26.430886,-16.454 50.5022055,-6.9528 75.714285,-10 -26.1062794,-7.6162 -34.1204466,-30.5411 -78.326323,-22.8423 2.101348,-19.7737 3.699324,-28.735 12.193619,-34.4442 25.419493,-4.8639 44.7151936,-0.8585 67.561276,5.858 -19.214222,-20.9069 -36.741369,-47.116 -64.964105,-39.7103 4.589985,-9.8439 0.676224,-20.9025 14.025742,-29.495 21.9863967,-10.3066 39.929487,3.6467 59.509791,7.7766 -11.825145,-23.1109 -24.836216,-42.6639 -44.6472115,-41.8172 5.0119648,-9.5527 -0.3375539,-26.5065 15.0358945,-28.6581 12.240405,2.3875 28.45617,-7.0035 39.438003,11.7455 -8.99379,-11.0925 -0.392814,-32.7418 -27.850985,-32.7556 6.791731,-8.1275 2.591324,-22.3617 20.678391,-24.2139 9.58257,2.1936 16.925858,15.5836 25.310736,23.7656 -1.755595,-16.1234 -6.67106,-26.7171 -13.810375,-33.4191 5.787317,-5.4368 4.786814,-13.5888 17.373093,-16.306 10.583929,0.9113 19.426453,14.0125 28.759615,23.6791 -4.501827,-12.5628 -1.430668,-30.8053 -15.484057,-36.2045 0.645242,-3.3519 38.261958,-19.9164 50.561998,-20.6783 12.3825,1.072 6.72223,2.7378 17.75818,11.8891 l 24.99999,-1.6142 z"
       id="path4146"
       inkscape:connector-curvature="0"
       sodipodi:nodetypes="ccccccccccccccccccccccccccccccc" />
    <path
       style="fill:none;fill-rule:evenodd;stroke:#000000;stroke-width:1px;stroke-linecap:butt;stroke-linejoin:miter;stroke-opacity:1"
       d="m -557.31044,2327.2138 120,155.7143 138.57141,-147.1428 20,-128.5715 -152.14285,-158.5714 z"
       id="path4148"
       inkscape:connector-curvature="0"
       sodipodi:nodetypes="cccccc" />
    <path
       style="fill:none;fill-rule:evenodd;stroke:#000000;stroke-width:1px;stroke-linecap:butt;stroke-linejoin:miter;stroke-opacity:1"
       d="m -391.80582,822.29317 c 77.48006,66.0105 54.68817,142.1791 -9.28571,130.7143 -134.48064,-74.0157 -90.24357,99.64703 -111.47062,138.38583 54.18329,91.2639 -47.19746,68.8344 -40.67224,97.3285 42.43363,39.7143 57.1437,154.778 195.7143,27.1428 2.06514,10.6553 44.80519,-2.0044 -5.00001,32.8571 6.82683,52.0787 -89.48631,58.8084 -139.28572,80.0001 31.89849,16.0019 120.17449,-22.3662 164.28572,-55.7143 47.41817,-35.8482 95.97524,-52.2412 54.28571,-98.5715 -13.56853,-58.399 -193.54007,42.7813 -123.53299,-68.2842 31.67491,-31.3593 -119.73995,-111.14243 48.53299,-73.1444 53.10505,13.1417 103.35503,-105.93283 132.14286,-167.14283 14.87175,-42.735 7.94063,-77.2501 -32.85714,-101.4286 -55.20604,139.1349 -58.96566,38.4343 -132.85715,57.8572 z"
       id="path4150"
       inkscape:connector-curvature="0"
       sodipodi:nodetypes="cccccccscccccc" />
    <path
       style="fill:#272cff;fill-opacity:1;fill-rule:evenodd;stroke:none;stroke-width:1px;stroke-linecap:butt;stroke-linejoin:miter;stroke-opacity:1"
       d="m 240.71429,1375.9336 11.42857,20 -5.71429,7.1429 z"
       id="path4152"
       inkscape:connector-curvature="0" />
    <path
       style="fill:#272cff;fill-opacity:1;fill-rule:evenodd;stroke:none;stroke-width:1px;stroke-linecap:butt;stroke-linejoin:miter;stroke-opacity:1"
       d="m 291.42857,1375.2193 -15.71428,19.2858 13.57142,3.5714 z"
       id="path4154"
       inkscape:connector-curvature="0" />
    <path
       style="fill:none;fill-rule:evenodd;stroke:#000000;stroke-width:1px;stroke-linecap:butt;stroke-linejoin:miter;stroke-opacity:1"
       d="m -749.31837,1573.1848 58.57143,71.4286 -154.28572,4.2857 -51.42857,167.1429 114.28572,102.8571 -10,44.2857 -140.00001,22.8572 c 0,0 190.00001,10 191.42858,1.4286 1.42857,-8.5715 25.71428,-91.4286 25.71428,-91.4286 l -101.42857,-97.1429 41.42857,-95.7143 215.71429,-27.1428 -30,-160 z"
       id="path4150-6"
       inkscape:connector-curvature="0" />
    <path
       style="fill:none;fill-rule:evenodd;stroke:#000000;stroke-width:1px;stroke-linecap:butt;stroke-linejoin:miter;stroke-opacity:1"
       d="m -775.32358,941.47211 c 77.48006,66.01049 54.68817,142.17909 -9.28571,130.71429 -134.48064,-74.01569 -90.24357,99.647 -111.47062,138.3858 54.18329,91.2639 -47.19746,68.8344 -40.67224,97.3285 42.43363,39.7143 57.1437,154.778 195.7143,27.1428 2.06514,10.6553 44.80519,-2.0044 -5.00001,32.8571 6.82683,52.0787 -89.48631,58.8084 -139.28572,80.0001 31.89849,16.0019 120.17449,-22.3662 164.28572,-55.7143 47.41817,-35.8482 95.97524,-52.2412 54.28571,-98.5715 -13.56853,-58.399 -193.54007,42.7813 -123.53299,-68.2842 31.67491,-31.3593 -119.73995,-111.1424 48.53299,-73.1444 53.10505,13.1417 103.35503,-105.9328 132.14286,-167.14279 14.87175,-42.735 7.94063,-77.2501 -32.85714,-101.4286 -55.20604,139.13489 -58.96566,38.4343 -132.85715,57.8572 z"
       id="path4150-8"
       inkscape:connector-curvature="0"
       sodipodi:nodetypes="cccccccscccccc" />
    <path
       style="fill:none;fill-rule:evenodd;stroke:#000000;stroke-width:1px;stroke-linecap:butt;stroke-linejoin:miter;stroke-opacity:1"
       d="m 876.81241,1442.2811 c 14.14213,0 195.96959,-76.7716 195.96959,-76.7716 l -72.731,191.929 -147.48225,0 -32.32488,76.7716 78.79189,78.7919 c 0,0 -54.54823,74.7513 -60.60915,64.6497 -6.06091,-10.1015 -96.97464,-123.2386 -96.97464,-123.2386 0,0 36.36549,-131.3198 48.48732,-131.3198 12.12183,0 159.6041,-10.1015 159.6041,-10.1015 z"
       id="path4201"
       inkscape:connector-curvature="0" />
    <path
       style="fill:none;fill-rule:evenodd;stroke:#000000;stroke-width:1px;stroke-linecap:butt;stroke-linejoin:miter;stroke-opacity:1"
       d="m 961.66522,1787.7533 119.19798,-20.2031 -4.0406,115.1574 -222.23355,82.8325 -92.93403,-96.9746 66.67007,-40.4061 c 0,0 50.50762,68.6903 60.60915,68.6903 10.10152,0 109.09647,-50.5076 109.09647,-50.5076 z"
       id="path4203"
       inkscape:connector-curvature="0" />
    <path
       style="fill:#272cff;fill-opacity:1;fill-rule:evenodd;stroke:none;stroke-width:0.82596952px;stroke-linecap:butt;stroke-linejoin:miter;stroke-opacity:1"
       d="m 222.9709,1461.448 c 80.94782,79.7001 136.18345,-71.3298 158.76301,-79.8396 26.96217,32.34 -4.72041,250.97 -100.69704,236.7242 -84.46007,-51.6461 -140.16462,55.0323 -15.45793,37.5019 15.61831,8.0984 -11.6563,49.1232 -49.87195,49.4878 -17.75734,0.1694 -99.34035,-31.5839 -115.62689,-62.76 -13.865636,-48.2425 6.89164,-99.583 40.85609,-114.6145 92.14284,-40.7792 91.36079,50.43 163.56841,42.3649 -38.2673,-19.3924 -85.61486,-90.041 -81.5337,-108.8647 z"
       id="path4201-0"
       inkscape:connector-curvature="0"
       sodipodi:nodetypes="ccccscscc" />
    <path
       style="fill:#272cff;fill-opacity:1;fill-rule:evenodd;stroke:none;stroke-width:1px;stroke-linecap:butt;stroke-linejoin:miter;stroke-opacity:1"
       d="m 392.48597,1792.0526 c 46.27904,3.2178 89.73042,-6.1685 135.48913,-51.0907 42.82051,4.4904 85.90026,61.8198 70.28356,123.6211 -9.65947,83.066 -218.03193,92.5578 -268.72775,27.492 -23.35823,-66.9808 4.3482,-71.2504 22.84845,-79.4281 -8.7119,32.6051 -15.24356,32.0456 8.92059,61.15 39.56759,47.657 136.45813,6.9047 122.92786,-23.7026 5.14206,-19.4659 -68.81707,-46.6328 -91.74184,-58.0417 z"
       id="path4203-9"
       inkscape:connector-curvature="0"
       sodipodi:nodetypes="cccccscc" />
    <path
       style="fill:#272cff;fill-opacity:1;fill-rule:evenodd;stroke:#000000;stroke-width:12.9177494;stroke-linecap:round;stroke-linejoin:round;stroke-miterlimit:4;stroke-dasharray:none;stroke-opacity:1"
       d="m 2052.63,-329.12981 -348.7793,219.60173 77.5065,361.697 271.2728,258.35499 271.2727,-258.35499 77.5065,-361.697 z"
       id="path4136-9"
       inkscape:connector-curvature="0"
       sodipodi:nodetypes="ccccccc" />
  </g>
</svg>
