<?xml version="1.0" encoding="UTF-8" standalone="no"?>
<!-- Created with Inkscape (http://www.inkscape.org/) -->

<svg
   xmlns:dc="http://purl.org/dc/elements/1.1/"
   xmlns:cc="http://creativecommons.org/ns#"
   xmlns:rdf="http://www.w3.org/1999/02/22-rdf-syntax-ns#"
   xmlns:svg="http://www.w3.org/2000/svg"
   xmlns="http://www.w3.org/2000/svg"
   xmlns:sodipodi="http://sodipodi.sourceforge.net/DTD/sodipodi-0.dtd"
   xmlns:inkscape="http://www.inkscape.org/namespaces/inkscape"
   width="210mm"
   height="297mm"
   viewBox="0 0 744.09448819 1052.3622047"
   id="svg2"
   version="1.1"
   inkscape:version="0.91 r13725"
   sodipodi:docname="team_valor_fireball.svg">
  <defs
     id="defs4" />
  <sodipodi:namedview
     id="base"
     pagecolor="#ffffff"
     bordercolor="#666666"
     borderopacity="1.0"
     inkscape:pageopacity="0.0"
     inkscape:pageshadow="2"
     inkscape:zoom="0.98994949"
     inkscape:cx="-357.20345"
     inkscape:cy="823.45487"
     inkscape:document-units="px"
     inkscape:current-layer="layer1"
     showgrid="false"
     inkscape:window-width="1680"
     inkscape:window-height="988"
     inkscape:window-x="-8"
     inkscape:window-y="-8"
     inkscape:window-maximized="1" />
  <metadata
     id="metadata7">
    <rdf:RDF>
      <cc:Work
         rdf:about="">
        <dc:format>image/svg+xml</dc:format>
        <dc:type
           rdf:resource="http://purl.org/dc/dcmitype/StillImage" />
        <dc:title></dc:title>
      </cc:Work>
    </rdf:RDF>
  </metadata>
  <g
     inkscape:label="Layer 1"
     inkscape:groupmode="layer"
     id="layer1">
    <path
       style="fill:none;fill-rule:evenodd;stroke:#000000;stroke-width:1px;stroke-linecap:butt;stroke-linejoin:miter;stroke-opacity:1"
       d="m 491.31473,414.41225 c -1.27905,46.56157 -198.25926,106.78976 -151.00912,72.487 71.54905,-51.94332 -179.29546,72.30123 -179.29546,72.30123 -189.650903,125.83441 -8.47786,387.22205 246.87312,392.12694 46.66571,-3.30982 154.33218,-17.62861 215.37997,-173.85498 18.27099,-29.90839 68.66763,-182.18963 20.51146,-117.82757 -41.35573,55.27309 53.00543,-87.18722 50.51101,-184.42552 24.33136,-4.36717 -107.27529,-279.27764 -101.8629,-185.83185 5.01086,86.5132 -73.99811,-16.19592 -101.34087,-28.4785 -33.42927,-15.01669 -253.14606,-24.32395 -163.20668,-9.00547 118.33789,20.15532 -259.403828,-2.87473 -143.02245,24.93002 0,0 164.88827,11.6237 41.42616,15.68946 -22.57582,0.74345 300.40849,39.81633 167.79846,55.92105 -66.19776,8.03933 157.02666,11.12454 97.2373,65.96819 z"
       id="path4136"
       inkscape:connector-curvature="0"
       sodipodi:nodetypes="cscccscssssssc" />
    <path
       style="fill:none;fill-rule:evenodd;stroke:#000000;stroke-width:1px;stroke-linecap:butt;stroke-linejoin:miter;stroke-opacity:1"
       d="m -948.57143,558.07649 c -0.58654,34.79293 200.19815,-9.90278 331.42857,-27.14286 -2.1517,5.33742 96.87917,-35.10839 103.78999,-35.6736 164.99442,-13.49427 142.69722,101.14386 110.8225,133.14197 -26.35081,26.45281 -225.70829,12.20342 -242.05024,9.09465 -111.09262,-21.13341 -173.99082,13.43698 -173.99082,13.43698 -43.33496,73.30246 -60.93787,132.88115 -47.14286,175.71429 -85.71491,372.51048 -187.17661,336.93178 -328.57141,382.85718 -199.3798,4.6571 -157.522,-104.5559 -57.1429,-211.42861 9.4034,-100.03053 -30.7506,-171.36994 42.8572,-308.57143 27.5942,-84.22753 168.1601,-91.15864 259.99997,-131.42857 z"
       id="path4138"
       inkscape:connector-curvature="0"
       sodipodi:nodetypes="ccssscccccc" />
    <path
       style="fill:none;fill-rule:evenodd;stroke:#000000;stroke-width:1px;stroke-linecap:butt;stroke-linejoin:miter;stroke-opacity:1"
       d="m -400,539.50506 c -61.63303,47.97239 -53.42918,61.76929 -54.28571,80 -13.22603,31.15267 164.17843,6.06275 319.00471,-68.64322 13.94472,-11.36799 -255.68998,-15.40205 -264.719,-11.35678 z"
       id="path4140"
       inkscape:connector-curvature="0"
       sodipodi:nodetypes="cccc" />
    <path
       style="fill:#d3d3d3;fill-rule:evenodd;stroke:#000000;stroke-width:1px;stroke-linecap:butt;stroke-linejoin:miter;stroke-opacity:1;fill-opacity:1"
       d="m -757.14286,818.07649 c -68.60497,-93.84099 -182.01441,-180.78899 -160,-288.57143 -18.47069,-195.10993 -25.74458,-439.485749 -80,-477.142855 -150.44804,-111.231933 -322.28274,-372.169805 -445.71424,-294.285715 120.2644,288.483291 282.8936,562.84499 360,865.71429 21.1835,131.79379 115.44101,178.33466 177.14281,262.85714 311.99698,165.24188 558.14663,412.79288 811.428576,651.42858 110.770516,-99.6807 -158.122866,-322.1938 -279.999996,-497.1429 2.75368,-67.42398 -253.20619,-148.46446 -382.85715,-222.85711 z"
       id="path4142"
       inkscape:connector-curvature="0"
       sodipodi:nodetypes="ccccccccc" />
    <path
       style="fill:#d83c3c;fill-opacity:1;fill-rule:evenodd;stroke:#000000;stroke-width:1px;stroke-linecap:butt;stroke-linejoin:miter;stroke-opacity:1"
       d="m -1239.7143,606.64792 c 0,0 143.7811,7.83937 159.2573,-19.51468 32.1347,-56.79811 -313.358,-868.74084 -353.4204,-837.11258 -10.3691,3.9 -64.5614,8.84105 -51.8738,13.99282 9.6965,3.93724 -102.3069,24.13174 -65.5442,24.83595 6.2517,0.11976 -55.4188,30.39669 -51.6129,31.6027 28.449,-6.3358 80.0225,-28.49399 76.1478,-26.16881 -30.2408,18.14712 49.762,1.09661 49.762,1.09661 -60.2465,31.50572 38.3008,0.38785 34.6057,6.56747 -3.8903,4.94436 -43.259,15.29658 -33.2749,14.64295 9.1452,-0.59871 -53.4554,17.65243 -31.2852,15.62517 21.4384,-1.96036 -40.0301,21.50563 -33.718,22.43173 6.683,2.24558 98.241,-11.5199 83.1267,-3.93746 -17.128,8.59268 55.2185,2.62288 44.4467,6.11839 -3.4154,4.45958 -49.8242,22.56226 -40.2399,21.00628 35.8023,-5.81244 -34.5884,26.669343 -14.2297,26.312047 8.7806,1.911657 54.273,-2.722612 41.1185,2.998579 -14.1646,6.160461 51.6567,2.919541 39.6933,8.996833 -5.4038,6.588193 -68.9214,24.724603 -55.1288,24.951567 21.8057,0.358823 -38.004,23.893421 -22.2814,23.359047 6.5151,2.0775 65.6538,-3.930957 49.372,0.86388 -20.1544,5.935296 38.5342,4.371043 15.9915,11.624419 -2.8388,3.119265 -31.9786,11.497771 -21.0534,13.014383 11.7469,1.6306849 -96.4824,36.559965 -56.6021,29.797921 4.7544,-0.806156 -84.6294,29.087736 -54.6264,21.890602 49.2946,-11.824818 -26.9929,19.502665 -20.8055,34.589417 21.9546,-24.421531 77.1202,-37.466669 65.0544,-31.219261 -44.4591,23.019974 94.8843,-27.084482 86.1809,-22.896618 -20.7945,10.005789 43.8303,10.416098 25.3916,16.745086 -3.4599,3.753332 -31.3305,10.673975 -21.2449,13.488757 8.7192,2.433425 -58.4639,28.92359 -33.8963,25.452638 20.7386,-2.929974 -49.097,25.425593 -35.1027,28.637743 26.2153,-16.592005 118.2615,-39.449899 91.3611,-24.303568 -20.4689,11.525046 81.2692,0.60503 60.1179,17.849005 -3.4957,4.384113 -60.5864,15.353623 -52.6392,18.409663 27.9174,10.73547 -51.5361,43.68822 -19.1868,37.68445 10.1528,3.12774 61.628,-4.15148 42.7487,5.28647 -20.2964,10.14638 41.654,5.1509 30.1685,18.49717 -6.4946,6.48029 -44.6908,23.85293 -30.3147,23.11561 9.2078,-0.47225 -66.7156,18.63363 -37.0046,15.92163 11.9997,-1.09532 -130.5789,36.63102 -82.6601,29.05526 28.5916,-4.52019 -48.9775,43.79063 -24.0945,35.63888 17.611,-14.68388 -12.769,40.40577 9.8525,13.13216 37.1556,-44.79668 169.5859,-57.23256 138.267,-35.8194 -46.7795,31.98375 6.8937,-3.87311 44.4782,3.14944 36.0552,6.7368 59.5278,13.94368 51.8346,21.04388 -5.7185,6.97381 -63.4444,23.40838 -29.0457,17.63557 13.9542,-2.34179 -58.3428,31.03187 -42.1572,28.41281 53.2358,-8.61428 12.8231,23.47928 -35.9233,33.10456 5.5421,3.94999 59.4659,13.10633 65.4464,0.87231 5.7376,-11.73722 99.6023,2.83713 51.8908,23.78407 -0.3467,7.60887 -92.5954,34.71819 -59.4755,29.37382 11.0449,-1.78225 -83.1153,39.90054 -48.1505,30.50053 30.1037,-8.09317 -95.8072,73.64719 -64.8879,57.46628 35.2253,-18.43432 63.1669,-34.55858 54.4096,-17.04345 0,0 62.0698,-40.66599 49.2451,-28.78204 -7.4066,6.86327 38.626,-15.59496 19.5951,-1.97446 2.8212,1.25263 87.4407,-24.03449 22.1598,10.14817 -12.4483,6.51826 -29.2516,28.40951 -20.2644,25.43145 46.1086,-15.27885 -3.7371,19.02391 -9.0441,21.17789 -26.2042,10.63546 74.7572,-11.82426 54.2305,-0.9706 -26.8257,14.18423 55.3628,-5.65007 32.7601,5.4799 -46.6138,25.57282 -36.7852,32.39648 -21.6554,27.73146 28.8277,-8.88854 -20.3875,30.96931 2.1887,24.12246 83.6455,-25.3678 -43.6382,44.41892 -18.4586,35.07504 z"
       id="path4146"
       inkscape:connector-curvature="0"
       sodipodi:nodetypes="cscsscsscsscscscscscscssscsscsscscscscssscssscsscscssssscsssscssc" />
    <path
       style="fill:none;fill-rule:evenodd;stroke:#000000;stroke-width:1px;stroke-linecap:butt;stroke-linejoin:miter;stroke-opacity:1"
       d="m -1311.4286,978.07649 c -3.8684,-0.0769 -228.7736,191.85521 -134.7462,134.59821 39.2245,-23.8853 -16.6824,76.8304 -16.6824,76.8304 l -86.6386,-40.5883 c 46.0224,51.8954 -129.3837,-40.0834 -93.3613,-2.2689 l -17.3064,50.2051 c 35.4445,-28.9078 -2.0669,53.6176 -12.607,75.9499 -5.8647,15.1129 -28.4197,55.026 57.1428,-65.7143 -19.1994,-35.9583 156.2832,33.5688 90.9124,30.4432 -42.5079,-2.0325 150.4298,29.605 84.7153,40.5447 23.8302,0.173 120.0471,-15.4481 71.4882,0.5026 l 148.5118,8.0688 c -166.5735,-51.8207 -167.9261,-165.5991 -91.4286,-308.57141 z"
       id="path4148"
       inkscape:connector-curvature="0"
       sodipodi:nodetypes="csccccccscccc" />
    <path
       style="fill:#d83c3c;fill-opacity:1;fill-rule:evenodd;stroke:#000000;stroke-width:1.08318698px;stroke-linecap:butt;stroke-linejoin:miter;stroke-opacity:1"
       d="m -917.34955,1040.714 c 0,0 40.95524,-147.56179 75.03351,-154.19691 70.76017,-13.77692 806.858832,600.91561 759.869488,630.94191 -7.652059,9.1772 -31.396408,62.2049 -32.475208,47.7211 -0.82452,-11.0695 -60.40243,95.253 -48.56263,57.95 2.01337,-6.3434 -50.94862,45.9159 -50.91519,41.6825 16.40219,-26.6105 57.36632,-71.3506 53.5937,-68.2059 -29.44325,24.5435 15.87541,-50.5404 15.87541,-50.5404 -53.76762,50.4205 12.69889,-38.7502 4.93217,-37.0507 -6.53379,2.3013 -30.89894,38.6063 -26.79441,28.7524 3.75956,-9.0257 -36.86722,48.1158 -27.14721,26.4239 9.39925,-20.9759 -36.32712,33.3136 -35.14145,26.6447 -0.0758,-7.4757 45.7406,-95.2894 32.59003,-82.5347 -14.90271,14.4539 16.13669,-56.5433 8.77244,-46.8273 -5.86113,1.9815 -40.79063,42.8436 -35.87358,33.689 18.36795,-34.1973 -39.89816,26.1326 -32.5553,5.7198 0.99347,-9.4813 21.43774,-53.8366 10.91618,-42.4479 -11.32933,12.2633 14.60567,-53.0488 4.11709,-42.9778 -8.78137,3.2885 -49.60122,61.3922 -45.11994,47.4092 7.08466,-22.1069 -38.14629,30.4873 -32.20354,14.8077 0.0436,-7.2513 26.60371,-64.9169 15.98675,-50.0706 -13.14222,18.3773 8.58773,-40.292 -6.7588,-19.9386 -4.25357,1.8397 -23.04151,28.4767 -20.89855,16.9623 2.30416,-12.3806 -71.48611,85.3035 -50.72354,47.3054 2.47525,-4.53 -59.56755,75.8014 -41.72725,47.9065 29.31143,-45.8311 -29.75814,20.8237 -43.51515,9.6362 33.20963,-14.1297 65.81419,-65.481 55.11161,-55.3627 -39.43624,37.2832 60.96907,-86.7997 53.58421,-79.3965 -17.64437,17.6878 4.03938,-47.6152 -8.92996,-31.0972 -5.1333,2.258 -21.95295,28.0934 -21.46322,16.9998 0.42333,-9.5907 -50.44069,49.4697 -38.38115,25.8337 10.17989,-19.952 -43.55463,41.1713 -42.14544,26.0058 26.42943,-20.9943 81.98003,-106.3182 56.83732,-84.159 -19.13145,16.8612 27.1748,-82.1514 1.79227,-66.4776 -5.80917,2.0873 -36.88858,56.0606 -37.38458,47.0443 -1.74213,-31.6732 -63.60533,37.6412 -46.21776,6.9888 0.18341,-11.2639 25.45817,-60.7849 9.06671,-44.8422 -17.62169,17.1395 8.83475,-43.6937 -9.13875,-36.4888 -9.04113,4.424 -40.39193,37.2438 -34.69641,22.9886 3.64791,-9.1304 -42.43745,61.1655 -29.41633,32.0941 5.25894,-11.7415 -83.22925,119.6634 -58.85954,73.8262 14.54061,-27.3497 -62.83748,35.0274 -45.74488,12.6087 21.47716,-12.9433 -46.88486,-0.3754 -10.44599,-14.2424 59.85041,-22.7761 118.25489,-152.242 85.0061,-127.6824 -49.66207,36.6832 6.43442,-5.6816 11.90722,-45.8855 5.25006,-38.5679 5.69953,-64.6017 -4.40403,-59.1723 -9.29482,3.4792 -46.34193,56.3008 -28.49602,23.5061 7.23929,-13.3037 -52.61763,48.6561 -44.32297,33.1932 27.28202,-50.8583 -20.31673,-20.6315 -47.12617,25.3682 -2.25991,-6.884 6.55944,-64.2646 21.47872,-66.283 14.31349,-1.9364 31.09996,-101.3709 -7.26802,-60.1278 -8.12466,-2.1459 -68.21797,81.9878 -51.26054,50.3422 5.65501,-10.5534 -70.42675,70.7282 -48.57063,38.5521 18.81763,-27.7026 -110.27841,72.4592 -82.6718,46.5867 31.4512,-29.4759 57.97924,-52.3642 36.55291,-49.2777 0,0 64.03008,-49.2548 47.13696,-40.2197 -9.75625,5.218 29.62735,-33.8363 8.78315,-19.1124 -0.35255,-3.2557 55.21267,-80.2938 -3.09451,-25.6745 -11.11862,10.4152 -39.90294,20.1802 -33.69391,12.0941 31.8555,-41.4855 -21.29593,-2.4707 -25.37846,2.1745 -20.1581,22.9366 38.02445,-71.5082 19.57968,-54.3685 -24.10485,22.3995 24.89085,-53.9755 5.44487,-34.8329 -42.85968,38.6189 -46.67606,26.4695 -36.58995,12.7425 19.21782,-26.1552 -39.56296,10.402 -24.63276,-10.1185 55.31671,-76.02943 -61.67137,29.4372 -43.22297,7.1102 z"
       id="path4146-2"
       inkscape:connector-curvature="0"
       sodipodi:nodetypes="cscsscsscsscscscscscscssscsscsscscscscssscssscsscscssssscsssscssc" />
    <path
       style="fill:#d83c3c;fill-opacity:1;fill-rule:evenodd;stroke:#000000;stroke-width:1px;stroke-linecap:butt;stroke-linejoin:miter;stroke-opacity:1"
       d="M -708.57143,553.79078 -410,519.50506 c 25.26519,-22.00171 69.89607,-62.65617 51.73516,-56.5902 -21.16921,7.07078 -1.25209,-62.14836 -0.33632,-90.97108 -25.80905,65.06435 -54.36211,60.40226 -37.5736,27.84844 24.84295,-48.17181 4.08273,-56.88043 -16.37159,-45.28537 -12.57024,7.12576 4.13448,-105.3707 -5.39267,-55.26519 -4.87457,25.63647 -134.28023,-69.07013 -83.34597,-28.10678 34.8361,36.69295 -21.99344,51.83412 -6.2773,81.85102 0.72806,14.85633 -74.98283,-78.26529 -68.86233,-34.5016 2.18334,15.6116 -86.89222,-20.97581 -108.72767,-25.154 35.50396,33.31613 109.48902,35.33486 54.82822,62.22659 -28.84204,14.18955 30.88201,47.05846 11.75264,91.09103 -8.37321,-13.97195 -32.89691,-41.50748 -28.61761,-29.92275 3.68421,9.97375 -80.57473,-39.42842 -57.45629,-19.02359 16.0559,14.17128 -77.69078,29.03018 -108.21181,33.23205 2.87653,-1.79783 65.88255,33.10211 76.31686,20.01466 23.47521,-29.44427 54.34542,34.42227 20.82599,34.27106 -10.05129,-0.0453 -59.03442,-1.14426 -43.92705,9.59841 15.72924,11.18486 -89.09098,34.51069 -87.50152,34.6873 -21.25761,17.81362 115.56738,-9.89425 138.57143,24.28572 z"
       id="path4314"
       inkscape:connector-curvature="0"
       sodipodi:nodetypes="ccscsssccscscsscssscc" />
  </g>
</svg>
