<?xml version="1.0" encoding="UTF-8" standalone="no"?>
<!-- Created with Inkscape (http://www.inkscape.org/) -->

<svg
   xmlns:dc="http://purl.org/dc/elements/1.1/"
   xmlns:cc="http://creativecommons.org/ns#"
   xmlns:rdf="http://www.w3.org/1999/02/22-rdf-syntax-ns#"
   xmlns:svg="http://www.w3.org/2000/svg"
   xmlns="http://www.w3.org/2000/svg"
   xmlns:sodipodi="http://sodipodi.sourceforge.net/DTD/sodipodi-0.dtd"
   xmlns:inkscape="http://www.inkscape.org/namespaces/inkscape"
   width="471.32129mm"
   height="312.92548mm"
   viewBox="0 0 1670.0361 1108.7911"
   id="svg2"
   version="1.1"
   inkscape:version="0.91 r13725"
   sodipodi:docname="team_mystic_simplified.svg">
  <defs
     id="defs4" />
  <sodipodi:namedview
     id="base"
     pagecolor="#ffffff"
     bordercolor="#666666"
     borderopacity="1.0"
     inkscape:pageopacity="0.0"
     inkscape:pageshadow="2"
     inkscape:zoom="0.24748737"
     inkscape:cx="-47.117209"
     inkscape:cy="629.65452"
     inkscape:document-units="px"
     inkscape:current-layer="layer1"
     showgrid="false"
     inkscape:window-width="1680"
     inkscape:window-height="988"
     inkscape:window-x="-8"
     inkscape:window-y="-8"
     inkscape:window-maximized="1"
     fit-margin-top="20"
     fit-margin-left="20"
     fit-margin-right="20"
     fit-margin-bottom="20" />
  <metadata
     id="metadata7">
    <rdf:RDF>
      <cc:Work
         rdf:about="">
        <dc:format>image/svg+xml</dc:format>
        <dc:type
           rdf:resource="http://purl.org/dc/dcmitype/StillImage" />
        <dc:title></dc:title>
      </cc:Work>
    </rdf:RDF>
  </metadata>
  <g
     inkscape:label="Layer 1"
     inkscape:groupmode="layer"
     id="layer1"
     transform="translate(339.77766,1.4639217)">
    <path
       style="fill:#0076f2;fill-opacity:1;fill-rule:evenodd;stroke:none;stroke-width:15;stroke-linecap:round;stroke-linejoin:round;stroke-miterlimit:4;stroke-dasharray:none;stroke-opacity:1"
       d="m -148.41213,91.15625 357.10867,132.47926 c 85.91305,57.90688 27.68285,103.03943 41.52428,154.55915 10.39974,28.81823 87.2006,28.21332 130.80141,42.31975 49.99525,5.46525 15.97105,62.47974 20.76213,95.6795 C 313.89135,492.88735 220.44924,508.92266 138.10529,446.27428 130.56797,422.94267 153.2436,389.57027 115.26695,376.35467 39.831196,364.7014 -46.315513,400.50974 -111.04029,341.39487 -369.51227,54.255948 -257.42489,42.997307 -148.41213,91.15625 Z"
       id="path4136"
       inkscape:connector-curvature="0"
       sodipodi:nodetypes="ccccccccc" />
    <path
       style="fill:#0076f2;fill-opacity:1;fill-rule:evenodd;stroke:none;stroke-width:15;stroke-linecap:round;stroke-linejoin:round;stroke-miterlimit:4;stroke-dasharray:none;stroke-opacity:1"
       d="m 494.47266,220.59961 c -0.0969,-0.002 -0.16129,0.10678 -0.1875,0.33398 -22.58249,35.0897 -27.75305,63.74675 -25.13027,101.15318 -2.24298,-40.1242 -31.58983,-44.40984 -49.15489,-71.15318 -1.3515,46.57914 1.83599,93.61248 27.14258,142.85743 l 45.71484,49.68359 50,-49.68359 c 24.44324,-48.57143 34.30687,-97.14342 42.85742,-145.71485 -26.72328,11.45837 -56.02212,51.17105 -61.42169,72.33832 7.93921,-18.07073 -9.71629,-82.96237 -29.82049,-99.81488 z m -33.40625,132.67187 c -3.21885,-16.36166 14.69921,19.30599 22.04882,28.95899 0.57901,6.3498 -7.02811,5.87783 -10.54492,8.81445 -8.1185,2.40238 -7.66927,-25.18229 -11.5039,-37.77344 z m 65.82031,1.01563 c -3.83464,12.59049 -4.09377,37.45927 -11.50391,37.77148 -3.51719,-2.93034 -8.33973,-2.59729 -10.54297,-8.8125 7.69531,-10.64868 23.03685,-43.27893 22.04688,-28.95898 z"
       id="path4153"
       inkscape:connector-curvature="0"
       sodipodi:nodetypes="cccccccccccccccccc" />
    <path
       style="fill:#0076f2;fill-opacity:1;fill-rule:evenodd;stroke:none;stroke-width:15;stroke-linecap:round;stroke-linejoin:round;stroke-miterlimit:4;stroke-dasharray:none;stroke-opacity:1"
       d="m 450,453.79078 37.14286,35.05076 c 12.19501,4.08967 28.22464,-22.49766 42.85714,-37.90791 -6.66667,58.57143 32.99012,45.18016 -18.98985,186.82597 -26.62499,53.57936 130.76506,-3.69568 193.6222,10.11384 69.19682,4.99685 300.93235,141.65819 206.33576,226.0486 -61.89292,69.16353 -119.91841,104.2584 -206.13271,148.81656 -73.86318,42.1613 -477.12362,-21.4585 -526.58086,-74.35753 -47.52597,-42.72409 -62.26544,-180.82932 7.57869,-204.4293 38.8367,55.49843 -54.54172,-1.20839 22.7382,135.06308 34.25637,39.84312 368.06643,83.53047 424.28571,51.91878 35.36459,-20.55197 88.33598,-48.07121 109.22264,-74.15445 70.02234,-58.11936 -136.96954,-44.5886 -211.01015,-50.21537 -139.60777,-3.36563 -167.41488,-56.17887 -185.35534,-92.77303 -17.0645,-32.21765 -48.25414,-168.00992 22.85714,-171.42858 26.67678,0.0121 66.82897,16.19477 80,0 24.66637,-9.36532 0.95238,-59.04761 1.42857,-88.57142 z"
       id="path4155"
       inkscape:connector-curvature="0"
       sodipodi:nodetypes="ccccccccccccccccc" />
    <path
       style="fill:#0076f2;fill-opacity:1;fill-rule:evenodd;stroke:none;stroke-width:15;stroke-linecap:round;stroke-linejoin:round;stroke-miterlimit:4;stroke-dasharray:none;stroke-opacity:1"
       d="M 1138.8929,93.186732 781.78421,225.66602 c -85.91305,57.90687 -27.68285,103.03943 -41.52426,154.55914 -10.39976,28.81823 -87.20064,28.21332 -130.80143,42.31976 -49.99525,5.46524 -15.97106,62.47974 -20.76214,95.67949 87.89302,-23.30655 181.33514,-7.27125 263.67909,-69.91962 7.53731,-23.33162 -15.13833,-56.70402 22.83834,-69.91961 75.43572,-11.65328 161.58239,24.15506 226.30729,-34.95981 C 1359.993,56.286444 1247.9055,45.027803 1138.8929,93.186732 Z"
       id="path4136-3"
       inkscape:connector-curvature="0"
       sodipodi:nodetypes="ccccccccc" />
  </g>
</svg>
