<?xml version="1.0" encoding="UTF-8" standalone="no"?>
<!-- Created with Inkscape (http://www.inkscape.org/) -->

<svg
   xmlns:dc="http://purl.org/dc/elements/1.1/"
   xmlns:cc="http://creativecommons.org/ns#"
   xmlns:rdf="http://www.w3.org/1999/02/22-rdf-syntax-ns#"
   xmlns:svg="http://www.w3.org/2000/svg"
   xmlns="http://www.w3.org/2000/svg"
   xmlns:sodipodi="http://sodipodi.sourceforge.net/DTD/sodipodi-0.dtd"
   xmlns:inkscape="http://www.inkscape.org/namespaces/inkscape"
   id="svg4136"
   version="1.1"
   inkscape:version="0.91 r13725"
   width="1728"
   height="1939.6737"
   viewBox="0 0 1728 1939.6737"
   sodipodi:docname="team-wizard_with_text_white-n-gray.svg"
   inkscape:export-filename="C:\Users\dt209189\Documents\_tmp_git\team_wizard_gear\png output\team-wizard_with_text_white-n-grey.png"
   inkscape:export-xdpi="90"
   inkscape:export-ydpi="90">
  <metadata
     id="metadata4142">
    <rdf:RDF>
      <cc:Work
         rdf:about="">
        <dc:format>image/svg+xml</dc:format>
        <dc:type
           rdf:resource="http://purl.org/dc/dcmitype/StillImage" />
        <dc:title />
      </cc:Work>
    </rdf:RDF>
  </metadata>
  <defs
     id="defs4140" />
  <sodipodi:namedview
     pagecolor="#ffffff"
     bordercolor="#666666"
     borderopacity="1"
     objecttolerance="10"
     gridtolerance="10"
     guidetolerance="10"
     inkscape:pageopacity="0"
     inkscape:pageshadow="2"
     inkscape:window-width="1365"
     inkscape:window-height="900"
     id="namedview4138"
     showgrid="true"
     fit-margin-bottom="0"
     fit-margin-top="0"
     fit-margin-left="0"
     fit-margin-right="0"
     inkscape:zoom="0.35355339"
     inkscape:cx="746.42034"
     inkscape:cy="936.37539"
     inkscape:window-x="-7"
     inkscape:window-y="24"
     inkscape:window-maximized="0"
     inkscape:current-layer="svg4136">
    <inkscape:grid
       type="xygrid"
       id="grid4146"
       originx="-286.78906"
       originy="-3540.6529" />
  </sodipodi:namedview>
  <flowRoot
     xml:space="preserve"
     id="flowRoot4148"
     style="font-style:normal;font-weight:normal;font-size:80px;line-height:125%;font-family:sans-serif;letter-spacing:0px;word-spacing:0px;fill:#ffffff;fill-opacity:1;stroke:#afafaf;stroke-width:8.2;stroke-linecap:round;stroke-linejoin:round;stroke-opacity:1;stroke-miterlimit:4;stroke-dasharray:none;"
     transform="translate(-81.340659,-230.87912)"><flowRegion
       id="flowRegion4150"><rect
         id="rect4152"
         width="1320"
         height="440"
         x="280"
         y="1950"
         style="fill:#ffffff;fill-opacity:1;stroke:#afafaf;stroke-opacity:1;stroke-width:8.2;stroke-miterlimit:4;stroke-dasharray:none;stroke-linejoin:round;stroke-linecap:round;" /></flowRegion><flowPara
       id="flowPara4154"
       style="font-style:normal;font-variant:normal;font-weight:normal;font-stretch:normal;font-size:180px;font-family:'MV Boli';-inkscape-font-specification:'MV Boli';stroke:#afafaf;stroke-opacity:1;fill:#ffffff;fill-opacity:1;stroke-width:8.2;stroke-miterlimit:4;stroke-dasharray:none;stroke-linejoin:round;stroke-linecap:round;">#Team<flowSpan
   style="font-size:225px;stroke:#afafaf;stroke-opacity:1;fill:#ffffff;fill-opacity:1;stroke-width:8.2;stroke-miterlimit:4;stroke-dasharray:none;stroke-linejoin:round;stroke-linecap:round;"
   id="flowSpan5272">Wizard</flowSpan></flowPara></flowRoot>  <path
     sodipodi:type="star"
     style="fill:#ffffff;fill-opacity:1;stroke:#afafaf;stroke-width:10.80000019;stroke-linecap:round;stroke-linejoin:round;stroke-miterlimit:4;stroke-dasharray:none;stroke-opacity:1"
     id="path5274"
     sodipodi:sides="5"
     sodipodi:cx="173.21094"
     sodipodi:cy="1272.3267"
     sodipodi:r1="56.568542"
     sodipodi:r2="28.284271"
     sodipodi:arg1="0.78539816"
     sodipodi:arg2="1.4137167"
     inkscape:flatsided="false"
     inkscape:rounded="0"
     inkscape:randomized="0"
     d="m 213.21094,1312.3267 -35.57537,-12.064 -30.10621,22.4669 0.48011,-37.5621 -30.67062,-21.6901 35.87209,-11.1507 11.15073,-35.8721 21.69006,30.6706 37.56215,-0.4801 -22.4669,30.1062 z"
     inkscape:transform-center-x="2.7345747"
     inkscape:transform-center-y="-2.7345747" />
  <path
     sodipodi:type="star"
     style="fill:#ffffff;fill-opacity:1;stroke:#afafaf;stroke-width:10.80000019;stroke-linecap:round;stroke-linejoin:round;stroke-miterlimit:4;stroke-dasharray:none;stroke-opacity:1"
     id="path5274-7"
     sodipodi:sides="5"
     sodipodi:cx="1627.7164"
     sodipodi:cy="1182.085"
     sodipodi:r1="56.568542"
     sodipodi:r2="28.284271"
     sodipodi:arg1="0.78539816"
     sodipodi:arg2="1.4137167"
     inkscape:flatsided="false"
     inkscape:rounded="0"
     inkscape:randomized="0"
     d="m 1667.7164,1222.085 -35.5753,-12.064 -30.1063,22.4669 0.4802,-37.5621 -30.6707,-21.6901 35.8721,-11.1507 11.1508,-35.8721 21.69,30.6706 37.5622,-0.4801 -22.4669,30.1062 z"
     inkscape:transform-center-x="-2.325035"
     inkscape:transform-center-y="-3.1425735"
     transform="matrix(0.95810609,0.28641354,-0.28641354,0.95810609,366.75654,-352.67786)" />
  <path
     sodipodi:type="star"
     style="fill:#ffffff;fill-opacity:1;stroke:#afafaf;stroke-width:10.80000019;stroke-linecap:round;stroke-linejoin:round;stroke-miterlimit:4;stroke-dasharray:none;stroke-opacity:1"
     id="path5274-9"
     sodipodi:sides="5"
     sodipodi:cx="117.62852"
     sodipodi:cy="705.27173"
     sodipodi:r1="56.568542"
     sodipodi:r2="28.284271"
     sodipodi:arg1="0.78539816"
     sodipodi:arg2="1.4137167"
     inkscape:flatsided="false"
     inkscape:rounded="0"
     inkscape:randomized="0"
     d="m 157.62852,745.27173 -35.57537,-12.06396 -30.106214,22.4669 0.480111,-37.56215 -30.67062,-21.69006 35.87209,-11.15073 11.150733,-35.87209 21.69006,30.67062 37.56215,-0.48011 -22.4669,30.10621 z"
     inkscape:transform-center-x="2.7345747"
     inkscape:transform-center-y="-2.7345747" />
  <path
     sodipodi:type="star"
     style="fill:#ffffff;fill-opacity:1;stroke:#afafaf;stroke-width:10.80000019;stroke-linecap:round;stroke-linejoin:round;stroke-miterlimit:4;stroke-dasharray:none;stroke-opacity:1"
     id="path5274-9-1"
     sodipodi:sides="5"
     sodipodi:cx="1621.6285"
     sodipodi:cy="685.27173"
     sodipodi:r1="56.568542"
     sodipodi:r2="28.284271"
     sodipodi:arg1="0.78539816"
     sodipodi:arg2="1.4137167"
     inkscape:flatsided="false"
     inkscape:rounded="0"
     inkscape:randomized="0"
     d="m 1661.6285,725.27173 -35.5753,-12.06396 -30.1062,22.4669 0.4801,-37.56215 -30.6706,-21.69006 35.872,-11.15073 11.1508,-35.87209 21.69,30.67062 37.5622,-0.48011 -22.4669,30.10621 z"
     inkscape:transform-center-x="-4.4350563"
     inkscape:transform-center-y="-1.0070752"
     transform="matrix(0.91568147,0.40190477,-0.40190477,0.91568147,404.14731,-573.95914)" />
  <path
     sodipodi:type="star"
     style="fill:#ffffff;fill-opacity:1;stroke:#afafaf;stroke-width:10.80000019;stroke-linecap:round;stroke-linejoin:round;stroke-miterlimit:4;stroke-dasharray:none;stroke-opacity:1"
     id="path5274-9-9"
     sodipodi:sides="5"
     sodipodi:cx="625.95953"
     sodipodi:cy="138.70536"
     sodipodi:r1="56.568542"
     sodipodi:r2="28.284271"
     sodipodi:arg1="0.78539816"
     sodipodi:arg2="1.4137167"
     inkscape:flatsided="false"
     inkscape:rounded="0"
     inkscape:randomized="0"
     d="m 665.95953,178.70535 -35.57536,-12.06395 -30.10622,22.46689 0.48011,-37.56215 -30.67062,-21.69006 35.87209,-11.15073 11.15073,-35.872087 21.69006,30.670617 37.56215,-0.48011 -22.46689,30.10622 z"
     inkscape:transform-center-x="2.7345747"
     inkscape:transform-center-y="-2.7345747" />
  <path
     sodipodi:type="star"
     style="fill:#ffffff;fill-opacity:1;stroke:#afafaf;stroke-width:10.80000019;stroke-linecap:round;stroke-linejoin:round;stroke-miterlimit:4;stroke-dasharray:none;stroke-opacity:1"
     id="path5274-9-4"
     sodipodi:sides="5"
     sodipodi:cx="1121.0219"
     sodipodi:cy="71.177208"
     sodipodi:r1="56.568542"
     sodipodi:r2="28.284271"
     sodipodi:arg1="0.78539816"
     sodipodi:arg2="1.4137167"
     inkscape:flatsided="false"
     inkscape:rounded="0"
     inkscape:randomized="0"
     d="m 1161.0219,111.17721 -35.5754,-12.063957 -30.1062,22.466897 0.4801,-37.562152 -30.6706,-21.69006 35.8721,-11.15073 11.1507,-35.87209 21.69,30.67062 37.5622,-0.480111 -22.4669,30.106216 z"
     inkscape:transform-center-x="-2.598502"
     inkscape:transform-center-y="-2.870481"
     transform="matrix(0.95346101,0.30151635,-0.30151635,0.95346101,53.632321,-266.6939)" />
  <path
     style="fill:#ffffff;fill-opacity:1;fill-rule:evenodd;stroke:#000000;stroke-width:1px;stroke-linecap:butt;stroke-linejoin:miter;stroke-opacity:1"
     d="m 848.21094,570.32662 -60,-125 -104,-39 c 19.36025,32.57598 39.1209,65.12527 39,99 45.13207,-1.43605 83.44739,42.57295 125,65 z"
     id="path4166"
     inkscape:connector-curvature="0"
     sodipodi:nodetypes="ccccc" />
  <path
     style="fill:#ffffff;fill-opacity:1;fill-rule:evenodd;stroke:#000000;stroke-width:1px;stroke-linecap:butt;stroke-linejoin:miter;stroke-opacity:1"
     d="m 882.17075,567.82662 60,-125.00001 104.00005,-39 c -19.3603,32.57598 -39.1209,65.12527 -39,99 -45.13212,-1.43605 -83.44744,42.57296 -125.00005,65.00001 z"
     id="path4166-5"
     inkscape:connector-curvature="0"
     sodipodi:nodetypes="ccccc" />
  <path
     style="fill:#ffffff;fill-rule:evenodd;stroke:#000000;stroke-width:1px;stroke-linecap:butt;stroke-linejoin:miter;stroke-opacity:1;fill-opacity:1"
     d="m 865.21094,573.82662 c 7.36136,-63.9469 27.30533,-117.55305 60,-133.5 l -60,-140 -60,135 c 20.93067,16.07333 41.68792,50.41564 60,138.5 z"
     id="path4198"
     inkscape:connector-curvature="0"
     sodipodi:nodetypes="ccccc" />
  <path
     style="fill:#ffffff;fill-opacity:1;fill-rule:evenodd;stroke:#000000;stroke-width:1px;stroke-linecap:butt;stroke-linejoin:miter;stroke-opacity:1"
     d="m 789.71094,558.07617 c 16.76917,35.37821 27.58052,77.10755 18,116.25 -25.27422,63.13486 -57.60421,105.10486 -70.96485,203.98047 17.08498,65.1746 82.63923,115.20139 126.46485,172.01956 46.09885,-57.1669 109.88263,-95.04012 137.17186,-172.72659 10.3921,-18.0335 -33.06972,-101.67267 -71.67186,-177.77344 -10.5,-44.49955 -3.94687,-99.48007 7.75,-141 l -70.25,35 z m 76.68164,51.4668 c 5.71183,0.08 11.30564,1.80436 16.81836,4.67187 l -15.65625,32.47657 -18.6875,-31.94532 c 5.98309,-3.71765 11.81355,-5.28307 17.52539,-5.20312 z"
     id="path4200"
     inkscape:connector-curvature="0"
     sodipodi:nodetypes="cccccccccscccs" />
  <path
     style="fill:#ffffff;fill-rule:evenodd;stroke:#000000;stroke-width:1px;stroke-linecap:butt;stroke-linejoin:miter;stroke-opacity:1;fill-opacity:1"
     d="m 813.21094,1034.3266 c 62.85682,77.6714 39.0935,180.6367 247.99996,220 102.2144,-15.7975 169.7968,-60.6746 291,-29 l -19,-125 -140,-20 -279.99996,30 z"
     id="path4205"
     inkscape:connector-curvature="0"
     sodipodi:nodetypes="ccccccc" />
  <path
     style="fill:#ffffff;fill-opacity:1;fill-rule:evenodd;stroke:#000000;stroke-width:1px;stroke-linecap:butt;stroke-linejoin:miter;stroke-opacity:1"
     d="m 1284.2109,1252.3266 c 19.3542,-21.1875 49.0563,-3.8265 73.3431,9.5147 36.2363,210.2877 -56.8949,332.4587 -194.3431,418.4853 -46.0825,11.052 -70.9564,41.6812 -249.99996,-70 -125.10727,-83.7624 -253.20219,-179.4754 -350,-150 -78.95294,19.9428 -125.68902,68.6751 -80,200 -8.96613,-12.0677 -16.06882,-27.8624 -30,-30 -14.25792,45.3736 -37.07832,69.9527 -70,70 -20,4.7394 -40,-6.2982 -60,-20 35.13137,-8.9074 75.5072,-13.0073 80,-50 3.03678,-76.2475 -1.21704,-151.8397 25,-174 7.69035,-28.2377 107.79817,-103.6042 155,-76 l 324,93 c 47.30331,24.9689 94.92816,45.4137 165.99996,7 92.2724,-64.0407 173.5719,-127.3965 211,-228 z"
     id="path4207"
     inkscape:connector-curvature="0"
     sodipodi:nodetypes="ccccccccccccccc" />
  <path
     style="fill:#afafaf;fill-opacity:1;fill-rule:evenodd;stroke:#000000;stroke-width:1px;stroke-linecap:butt;stroke-linejoin:miter;stroke-opacity:1"
     d="m 865.90325,1077.4557 65.58791,-67.9588 c 20.638,40.253 47.29317,71.8739 101.71974,70.8297 57.9341,3.5728 104.5908,-33.0339 180,-40 134.172,9.386 137.045,56.0677 186.0879,92.6951 28.6973,60.5986 72.2254,126.4533 55.3263,218.6186 -20.9608,-85.1758 -68.894,-117.77 -119.656,-128.4428 -21.7582,-2.8709 93.1952,-155.5988 -159.9729,-97.8921 -161.7853,55.0212 -241.78526,15.0212 -309.09295,-47.8497 z"
     id="path5409"
     inkscape:connector-curvature="0"
     sodipodi:nodetypes="ccccccccc" />
  <path
     style="fill:#afafaf;fill-opacity:1;fill-rule:evenodd;stroke:#000000;stroke-width:1px;stroke-linecap:butt;stroke-linejoin:miter;stroke-opacity:1"
     d="m 1336.7464,1253.7616 c 78.5859,18.5858 89.429,61.3054 96.4645,106.565 0,200 -114.871,291.6554 -260,327.0711 -140,12.9289 -275.78559,-233.1678 -623.18194,-311.6673 35.16134,-2.258 60.27052,-22.3121 145.8094,-1.0607 117.86232,31.087 197.37258,65.6569 241.61522,121.4143 55.75736,44.2426 106.56882,129.3258 246.26702,53.3381 89.4675,-38.9629 159.4363,-94.4425 153.0258,-295.6605 z"
     id="path5411"
     inkscape:connector-curvature="0"
     sodipodi:nodetypes="cccccccc" />
  <path
     style="fill:#ffffff;fill-opacity:1;fill-rule:evenodd;stroke:#000000;stroke-width:1px;stroke-linecap:butt;stroke-linejoin:miter;stroke-opacity:1"
     d="M 18.666784,52.652519 C 24.759548,100.63251 51.584653,140.60808 80.282008,165.98347 176.95676,207.2465 271.73022,241.60121 314.62515,295.88297 L 94.424143,214.87078 c -4.174259,28.50792 29.610577,69.5367 58.786797,105.45584 79.73413,20.04566 142.28022,40.13163 169.89949,78.58579 L 156.03937,354.66977 c -10.87826,58.3405 46.60232,85.7147 94.14213,118.58578 99.9845,4.93782 114.12417,11.66988 147.27208,40 L 249.16931,500.52763 c -1.01582,41.09072 31.40016,67.44021 52.3259,82.82843 44.83155,5.06794 96.41947,-2.27734 117.17157,26.87005 l -101.2132,17.37259 c -16.71137,12.38512 -9.06408,39.96345 41.41421,59.79899 98.94551,-29.10667 101.372,-18.7283 121.41422,-15.55635 l -87.07107,48.48528 c 6.68591,33.27561 26.50754,27.14404 40,40 40,-18.12369 80,-49.53493 120,-40 l -65.85786,70.10051 c 15.26928,9.98316 28.69744,21.80745 65.85786,9.89949 29.05196,-23.36959 55.27075,-56.65527 91.31371,-55.55635 l -32.92893,77.17157 c -25.15889,31.83299 31.43019,17.68274 61.61522,18.38478 13.84299,-54.40197 22.54482,-109.23238 80,-160 l -240,-160 -80,-280 z"
     id="path4149"
     inkscape:connector-curvature="0"
     sodipodi:nodetypes="ccccccccccccccccccccccccccc" />
  <path
     style="fill:#ffffff;fill-opacity:1;fill-rule:evenodd;stroke:#000000;stroke-width:1px;stroke-linecap:butt;stroke-linejoin:miter;stroke-opacity:1"
     d="m 1710.1839,36.839256 c -6.0928,47.98 -32.9179,87.955574 -61.6152,113.330964 -96.6748,41.26303 -191.4483,75.61774 -234.3432,129.8995 l 220.201,-81.01219 c 4.1743,28.50792 -29.6106,69.5367 -58.7868,105.45584 -79.7341,20.04566 -142.2802,40.13163 -169.8995,78.58579 l 167.0711,-44.24264 c 10.8783,58.3405 -46.6023,85.7147 -94.1421,118.58578 -99.9845,4.93782 -114.1242,11.66988 -147.2721,40 l 148.2843,-12.72792 c 1.0158,41.09072 -31.4002,67.44021 -52.3259,82.82843 -44.8316,5.06794 -96.4195,-2.27734 -117.1716,26.87005 l 101.2132,17.37259 c 16.7114,12.38512 9.0641,39.96345 -41.4142,59.79899 -98.9455,-29.10667 -101.372,-18.7283 -121.4142,-15.55635 l 87.071,48.48524 c -6.6859,33.2756 -26.5075,27.1441 -40,40 -40,-18.1237 -80,-49.53489 -120,-40 l 65.8579,70.1005 c -15.2693,9.9832 -28.6975,21.80754 -65.8579,9.8995 -29.0519,-23.3696 -55.2707,-56.6552 -91.3137,-55.5563 l 32.9289,77.17164 c 25.1589,31.8329 -31.4301,17.6827 -61.6152,18.3847 -13.843,-54.40194 -22.5448,-109.23234 -79.99997,-160 l 239.99997,-160 80,-280 z"
     id="path4149-5"
     inkscape:connector-curvature="0"
     sodipodi:nodetypes="ccccccccccccccccccccccccccc" />
  <path
     style="fill:#afafaf;fill-opacity:1;fill-rule:evenodd;stroke:#000000;stroke-width:1.01146269px;stroke-linecap:butt;stroke-linejoin:miter;stroke-opacity:1"
     d="m 1724.5072,-1.4180106 c 2.2457,38.7212676 -14.7887,62.1288166 -25.4773,90.5765846 -113.9627,78.517616 -242.7152,120.324666 -367.1427,172.867236 -114.8138,171.31079 -80.1212,188.88312 -119.6357,282.76324 -66.4859,65.37089 -158.8178,86.7513 -243.62394,120.94065 l -15.17071,2.10427 c 0.3814,-26.32267 0.43749,-52.6205 36.64398,-81.67923 41.07517,-39.7096 144.12177,-69.94135 150.39727,-74.06928 24.2793,-15.97079 39.3731,-77.38546 59.694,-121.85484 l 41.3534,-95.16934 c 15.6668,-20.14941 6.594,-32.42488 46.5288,-78.87133 145.4776,-74.37474 290.9552,-155.939796 436.4329,-217.6079606 z"
     id="path5338-4"
     inkscape:connector-curvature="0"
     sodipodi:nodetypes="cccccccscccc" />
  <path
     style="fill:#afafaf;fill-opacity:1;fill-rule:evenodd;stroke:#000000;stroke-width:1.01029408px;stroke-linecap:butt;stroke-linejoin:miter;stroke-opacity:1"
     d="m 5.450306,14.199299 c -2.2335316,38.842118 14.70862,62.322722 25.33946,90.859271 113.345654,78.76267 241.401254,120.70021 365.155124,173.40676 114.19227,171.84544 79.68737,189.47263 118.988,283.64574 66.12596,65.57491 157.95799,87.02205 242.30506,121.31811 l 15.08859,2.11084 C 771.9472,659.13519 771.8914,632.75529 735.88093,603.60586 695.02808,563.77233 592.53929,533.44622 586.29787,529.30542 562.14997,513.28478 547.13796,451.67844 526.92693,407.07027 L 485.79747,311.6039 C 470.21543,291.3916 479.23918,279.07783 439.52065,232.48641 294.83053,157.87955 150.14042,76.059932 5.450306,14.199299 Z"
     id="path5338"
     inkscape:connector-curvature="0"
     sodipodi:nodetypes="cccccccscccc" />
</svg>
